# xmcd
#
# Track frame offsets:
# 150
# 16328
# 32392
# 51635
# 75901
# 109684
# 137531
# 158953
# 185131
# 207728
# 237089
# 267465
# 303381
# 326295
#
# Disc length: 4612 seconds
#
#
# Revision: 0
# Processed by: cddbd v1.5.2PL0 Copyright (c) Steve Scherf et al.
# Submitted via: FreeRIP 2.951 
#
DISCID=bb12020e
DTITLE=Díacono Nelsinho Correia - Quem mesegurou foi DEUS
DYEAR=1900
DGENRE=Católica
TTITLE0=Tudo por Jesus, nada sem Maria
TTITLE1=Genta linda
TTITLE2=Já chegou
TTITLE3=Jesus de Nazaré
TTITLE4=Liberdade
TTITLE5=Liberdade que Cristo me da
TTITLE6=Mãe do meu Salvador
TTITLE7=Meu Pai, Seu Pai
TTITLE8=Nossa Senhora
TTITLE9=Pq não vens amin
TTITLE10=Quem me segurou Foi DEUS
TTITLE11=Sacramento da Comunhão
TTITLE12=Saudade
TTITLE13=Shandalarim
EXTD=
EXTT0=
EXTT1=
EXTT2=
EXTT3=
EXTT4=
EXTT5=
EXTT6=
EXTT7=
EXTT8=
EXTT9=
EXTT10=
EXTT11=
EXTT12=
EXTT13=
PLAYORDER=
